<?xml version="1.0" encoding="UTF-8" standalone="no"?>
<!DOCTYPE svg PUBLIC "-//W3C//DTD SVG 1.1//EN" "http://www.w3.org/Graphics/SVG/1.1/DTD/svg11.dtd">
<!-- Created with Vectornator (http://vectornator.io/) -->
<svg height="100%" stroke-miterlimit="10" style="fill-rule:nonzero;clip-rule:evenodd;stroke-linecap:round;stroke-linejoin:round;" version="1.1" viewBox="0 0 841.995 595.35" width="100%" xml:space="preserve" xmlns="http://www.w3.org/2000/svg" xmlns:vectornator="http://vectornator.io" xmlns:xlink="http://www.w3.org/1999/xlink">
<defs/>
<g id="Layer-1" vectornator:layerName="Layer 1">
<g fill="none" opacity="1" stroke="#000000" stroke-linecap="butt" stroke-linejoin="miter" stroke-width="1.86558">
<path d="M186.059 253.694L186.059 315.294L198.643 315.294L198.643 274.022L214.659 315.294L225.395 315.294L241.411 274.022L241.411 315.294L253.995 315.294L253.995 253.694L237.011 253.694L220.467 298.926L203.395 253.694L186.059 253.694Z" stroke="#000000"/>
<path d="M259.627 315.294L273.267 315.294L278.019 301.83L301.427 301.83L306.179 315.294L320.347 315.294L297.995 253.694L282.155 253.694L259.627 315.294ZM281.539 291.182L289.635 267.774L297.819 291.182L281.539 291.182Z" stroke="#000000"/>
<path d="M351.059 253.694L325.979 253.694L325.979 315.294L339.179 315.294L339.179 294.614L350.355 294.614L360.651 315.294L375.259 315.294L363.115 291.534C366.4 289.95 368.982 287.648 370.859 284.626C372.736 281.605 373.675 278.129 373.675 274.198C373.675 270.092 372.736 266.484 370.859 263.374C368.982 260.265 366.327 257.874 362.895 256.202C359.463 254.53 355.518 253.694 351.059 253.694ZM339.179 283.614L339.179 264.694L350.003 264.694C353.112 264.694 355.591 265.545 357.439 267.246C359.287 268.948 360.211 271.265 360.211 274.198C360.211 277.073 359.287 279.361 357.439 281.062C355.591 282.764 353.112 283.614 350.003 283.614L339.179 283.614Z" stroke="#000000"/>
<path d="M382.827 267.994C380.363 272.717 379.131 278.217 379.131 284.494C379.131 290.713 380.348 296.198 382.783 300.95C385.218 305.702 388.65 309.369 393.079 311.95C397.508 314.532 402.627 315.822 408.435 315.822C412.483 315.822 416.032 315.06 419.083 313.534C422.134 312.009 424.568 310.044 426.387 307.638L427.795 315.294L436.947 315.294L436.947 281.062L409.403 281.062L409.403 291.534L424.715 291.534L424.715 292.326C424.128 296.374 422.368 299.44 419.435 301.522C416.502 303.605 413.128 304.646 409.315 304.646C404.094 304.646 400.002 302.798 397.039 299.102C394.076 295.406 392.595 290.537 392.595 284.494C392.595 280.564 393.27 277.073 394.619 274.022C395.968 270.972 397.904 268.596 400.427 266.894C402.95 265.193 405.912 264.342 409.315 264.342C413.011 264.342 416.091 265.354 418.555 267.378C421.019 269.402 422.662 272.145 423.483 275.606L436.507 275.606C435.979 271.206 434.527 267.305 432.151 263.902C429.775 260.5 426.651 257.86 422.779 255.982C418.907 254.105 414.536 253.166 409.667 253.166C403.448 253.166 398.036 254.457 393.431 257.038C388.826 259.62 385.291 263.272 382.827 267.994Z" stroke="#000000"/>
<path d="M442.579 315.294L456.219 315.294L460.971 301.83L484.379 301.83L489.131 315.294L503.299 315.294L480.947 253.694L465.107 253.694L442.579 315.294ZM464.491 291.182L472.587 267.774L480.771 291.182L464.491 291.182Z" stroke="#000000"/>
<path d="M534.011 253.694L508.931 253.694L508.931 315.294L522.131 315.294L522.131 294.614L533.307 294.614L543.603 315.294L558.211 315.294L546.067 291.534C549.352 289.95 551.934 287.648 553.811 284.626C555.688 281.605 556.627 278.129 556.627 274.198C556.627 270.092 555.688 266.484 553.811 263.374C551.934 260.265 549.279 257.874 545.847 256.202C542.415 254.53 538.47 253.694 534.011 253.694ZM522.131 283.614L522.131 264.694L532.955 264.694C536.064 264.694 538.543 265.545 540.391 267.246C542.239 268.948 543.163 271.265 543.163 274.198C543.163 277.073 542.239 279.361 540.391 281.062C538.543 282.764 536.064 283.614 532.955 283.614L522.131 283.614Z" stroke="#000000"/>
<path d="M565.427 253.694L565.427 315.294L607.755 315.294L607.755 303.942L578.627 303.942L578.627 289.686L601.507 289.686L601.507 278.862L578.627 278.862L578.627 265.046L606.787 265.046L606.787 253.694L565.427 253.694Z" stroke="#000000"/>
<path d="M611.275 253.694L611.275 265.046L629.051 265.046L629.051 315.294L642.251 315.294L642.251 265.046L660.027 265.046L660.027 253.694L611.275 253.694Z" stroke="#000000"/>
</g>
</g>
</svg>
