<?xml version="1.0" encoding="UTF-8" standalone="no"?>
<!DOCTYPE svg PUBLIC "-//W3C//DTD SVG 1.1//EN" "http://www.w3.org/Graphics/SVG/1.1/DTD/svg11.dtd">
<!-- Created with Vectornator (http://vectornator.io/) -->
<svg height="100%" stroke-miterlimit="10" style="fill-rule:nonzero;clip-rule:evenodd;stroke-linecap:round;stroke-linejoin:round;" version="1.1" viewBox="0 0 841.995 595.35" width="100%" xml:space="preserve" xmlns="http://www.w3.org/2000/svg" xmlns:vectornator="http://vectornator.io" xmlns:xlink="http://www.w3.org/1999/xlink">
<defs/>
<g id="Layer-1" vectornator:layerName="Layer 1">
<g fill="none" opacity="1" stroke="#000000" stroke-linecap="butt" stroke-linejoin="miter" stroke-width="1.86558">
<path d="M11.057 209.512L11.057 271.112L23.641 271.112L23.641 229.84L39.657 271.112L50.393 271.112L66.409 229.84L66.409 271.112L78.993 271.112L78.993 209.512L62.009 209.512L45.465 254.744L28.393 209.512L11.057 209.512Z" stroke="#000000"/>
<path d="M84.625 271.112L98.265 271.112L103.017 257.648L126.425 257.648L131.177 271.112L145.345 271.112L122.993 209.512L107.153 209.512L84.625 271.112ZM106.537 247L114.633 223.592L122.817 247L106.537 247Z" stroke="#000000"/>
<path d="M176.057 209.512L150.977 209.512L150.977 271.112L164.177 271.112L164.177 250.432L175.353 250.432L185.649 271.112L200.257 271.112L188.113 247.352C191.398 245.768 193.98 243.466 195.857 240.444C197.734 237.423 198.673 233.947 198.673 230.016C198.673 225.91 197.734 222.302 195.857 219.192C193.98 216.083 191.325 213.692 187.893 212.02C184.461 210.348 180.516 209.512 176.057 209.512ZM164.177 239.432L164.177 220.512L175.001 220.512C178.11 220.512 180.589 221.363 182.437 223.064C184.285 224.766 185.209 227.083 185.209 230.016C185.209 232.891 184.285 235.179 182.437 236.88C180.589 238.582 178.11 239.432 175.001 239.432L164.177 239.432Z" stroke="#000000"/>
<path d="M207.825 223.812C205.361 228.535 204.129 234.035 204.129 240.312C204.129 246.531 205.346 252.016 207.781 256.768C210.216 261.52 213.648 265.187 218.077 267.768C222.506 270.35 227.625 271.64 233.433 271.64C237.481 271.64 241.03 270.878 244.081 269.352C247.132 267.827 249.566 265.862 251.385 263.456L252.793 271.112L261.945 271.112L261.945 236.88L234.401 236.88L234.401 247.352L249.713 247.352L249.713 248.144C249.126 252.192 247.366 255.258 244.433 257.34C241.5 259.423 238.126 260.464 234.313 260.464C229.092 260.464 225 258.616 222.037 254.92C219.074 251.224 217.593 246.355 217.593 240.312C217.593 236.382 218.268 232.891 219.617 229.84C220.966 226.79 222.902 224.414 225.425 222.712C227.948 221.011 230.91 220.16 234.313 220.16C238.009 220.16 241.089 221.172 243.553 223.196C246.017 225.22 247.66 227.963 248.481 231.424L261.505 231.424C260.977 227.024 259.525 223.123 257.149 219.72C254.773 216.318 251.649 213.678 247.777 211.8C243.905 209.923 239.534 208.984 234.665 208.984C228.446 208.984 223.034 210.275 218.429 212.856C213.824 215.438 210.289 219.09 207.825 223.812Z" stroke="#000000"/>
<path d="M267.577 271.112L281.217 271.112L285.969 257.648L309.377 257.648L314.129 271.112L328.297 271.112L305.945 209.512L290.105 209.512L267.577 271.112ZM289.489 247L297.585 223.592L305.769 247L289.489 247Z" stroke="#000000"/>
<path d="M359.009 209.512L333.929 209.512L333.929 271.112L347.129 271.112L347.129 250.432L358.305 250.432L368.601 271.112L383.209 271.112L371.065 247.352C374.35 245.768 376.932 243.466 378.809 240.444C380.686 237.423 381.625 233.947 381.625 230.016C381.625 225.91 380.686 222.302 378.809 219.192C376.932 216.083 374.277 213.692 370.845 212.02C367.413 210.348 363.468 209.512 359.009 209.512ZM347.129 239.432L347.129 220.512L357.953 220.512C361.062 220.512 363.541 221.363 365.389 223.064C367.237 224.766 368.161 227.083 368.161 230.016C368.161 232.891 367.237 235.179 365.389 236.88C363.541 238.582 361.062 239.432 357.953 239.432L347.129 239.432Z" stroke="#000000"/>
<path d="M390.425 209.512L390.425 271.112L432.753 271.112L432.753 259.76L403.625 259.76L403.625 245.504L426.505 245.504L426.505 234.68L403.625 234.68L403.625 220.864L431.785 220.864L431.785 209.512L390.425 209.512Z" stroke="#000000"/>
<path d="M436.273 209.512L436.273 220.864L454.049 220.864L454.049 271.112L467.249 271.112L467.249 220.864L485.025 220.864L485.025 209.512L436.273 209.512Z" stroke="#000000"/>
</g>
<g fill="#000000" opacity="1" stroke="none">
<path d="M6.37906 295.15L6.37906 316.85L10.8121 316.85L10.8121 302.311L16.4541 316.85L20.2361 316.85L25.8781 302.311L25.8781 316.85L30.3111 316.85L30.3111 295.15L24.3281 295.15L18.5001 311.084L12.4861 295.15L6.37906 295.15Z"/>
<path d="M49.3761 313.161L48.8801 313.161C48.5287 313.161 48.2704 313.088 48.1051 312.944C47.9397 312.799 47.8571 312.53 47.8571 312.138L47.8571 306.527C47.8571 304.646 47.2422 303.21 46.0126 302.218C44.7829 301.226 43.0417 300.73 40.7891 300.73C38.6397 300.73 36.9141 301.179 35.6121 302.078C34.3101 302.977 33.5867 304.243 33.4421 305.876L37.6581 305.876C37.7614 305.276 38.0714 304.801 38.5881 304.45C39.1047 304.098 39.7661 303.923 40.5721 303.923C41.4814 303.923 42.2047 304.135 42.7421 304.558C43.2794 304.982 43.5481 305.555 43.5481 306.279L43.5481 307.054L40.3861 307.054C38.0094 307.054 36.1959 307.514 34.9456 308.433C33.6952 309.353 33.0701 310.66 33.0701 312.355C33.0701 313.843 33.6126 314.995 34.6976 315.811C35.7826 316.628 37.2137 317.036 38.9911 317.036C40.1897 317.036 41.2127 316.798 42.0601 316.323C42.9074 315.847 43.6204 315.155 44.1991 314.246C44.1577 315.982 45.1394 316.85 47.1441 316.85L49.3761 316.85L49.3761 313.161ZM43.5481 309.968L43.5481 310.278C43.5274 311.373 43.1864 312.246 42.5251 312.897C41.8637 313.548 40.9647 313.874 39.8281 313.874C39.1047 313.874 38.5312 313.708 38.1076 313.378C37.6839 313.047 37.4721 312.603 37.4721 312.045C37.4721 311.383 37.7252 310.872 38.2316 310.51C38.7379 310.149 39.4457 309.968 40.3551 309.968L43.5481 309.968Z"/>
<path d="M64.8141 302.466C63.6154 301.308 62.0861 300.73 60.2261 300.73C59.0687 300.73 58.0974 300.921 57.3121 301.303C56.5267 301.686 55.8551 302.218 55.2971 302.9L54.8941 300.916L51.0811 300.916L51.0811 316.85L55.4521 316.85L55.4521 308.697C55.4521 307.312 55.7621 306.237 56.3821 305.473C57.0021 304.708 57.8804 304.326 59.0171 304.326C61.1664 304.326 62.2411 305.7 62.2411 308.449L62.2411 316.85L66.6121 316.85L66.6121 308.201C66.6121 305.535 66.0127 303.623 64.8141 302.466Z"/>
<path d="M85.0571 313.161L84.5611 313.161C84.2097 313.161 83.9514 313.088 83.7861 312.944C83.6207 312.799 83.5381 312.53 83.5381 312.138L83.5381 306.527C83.5381 304.646 82.9232 303.21 81.6936 302.218C80.4639 301.226 78.7227 300.73 76.4701 300.73C74.3207 300.73 72.5951 301.179 71.2931 302.078C69.9911 302.977 69.2677 304.243 69.1231 305.876L73.3391 305.876C73.4424 305.276 73.7524 304.801 74.2691 304.45C74.7857 304.098 75.4471 303.923 76.2531 303.923C77.1624 303.923 77.8857 304.135 78.4231 304.558C78.9604 304.982 79.2291 305.555 79.2291 306.279L79.2291 307.054L76.0671 307.054C73.6904 307.054 71.8769 307.514 70.6266 308.433C69.3762 309.353 68.7511 310.66 68.7511 312.355C68.7511 313.843 69.2936 314.995 70.3786 315.811C71.4636 316.628 72.8947 317.036 74.6721 317.036C75.8707 317.036 76.8937 316.798 77.7411 316.323C78.5884 315.847 79.3014 315.155 79.8801 314.246C79.8387 315.982 80.8204 316.85 82.8251 316.85L85.0571 316.85L85.0571 313.161ZM79.2291 309.968L79.2291 310.278C79.2084 311.373 78.8674 312.246 78.2061 312.897C77.5447 313.548 76.6457 313.874 75.5091 313.874C74.7857 313.874 74.2122 313.708 73.7886 313.378C73.3649 313.047 73.1531 312.603 73.1531 312.045C73.1531 311.383 73.4062 310.872 73.9126 310.51C74.4189 310.149 75.1267 309.968 76.0361 309.968L79.2291 309.968Z"/>
<path d="M102.696 300.916L98.8521 300.916L98.4801 303.117C97.2607 301.505 95.6074 300.699 93.5201 300.699C92.1147 300.699 90.8489 301.029 89.7226 301.691C88.5962 302.352 87.7179 303.292 87.0876 304.512C86.4572 305.731 86.1421 307.136 86.1421 308.728C86.1421 310.34 86.4572 311.75 87.0876 312.959C87.7179 314.168 88.5911 315.103 89.7071 315.765C90.8231 316.426 92.0837 316.757 93.4891 316.757C95.6177 316.757 97.2607 316.023 98.4181 314.556L98.4181 316.23C98.4181 317.449 98.0771 318.369 97.3951 318.989C96.7131 319.609 95.7521 319.919 94.5121 319.919C93.5201 319.919 92.7192 319.712 92.1096 319.299C91.4999 318.885 91.0917 318.296 90.8851 317.532L86.4831 317.532C86.5864 319.35 87.3304 320.756 88.7151 321.748C90.0997 322.74 91.9184 323.236 94.1711 323.236C97.0851 323.236 99.2344 322.616 100.619 321.376C102.004 320.136 102.696 318.472 102.696 316.385L102.696 300.916ZM97.3331 312.014C96.6304 312.84 95.6901 313.254 94.5121 313.254C93.3341 313.254 92.3886 312.84 91.6756 312.014C90.9626 311.187 90.6061 310.102 90.6061 308.759C90.6061 307.415 90.9626 306.325 91.6756 305.488C92.3886 304.651 93.3341 304.233 94.5121 304.233C95.6901 304.233 96.6304 304.656 97.3331 305.504C98.0357 306.351 98.3871 307.446 98.3871 308.79C98.3871 310.112 98.0357 311.187 97.3331 312.014Z"/>
<path d="M106.122 304.589C105.45 305.819 105.114 307.26 105.114 308.914C105.114 310.546 105.46 311.978 106.153 313.207C106.845 314.437 107.837 315.382 109.129 316.044C110.42 316.705 111.955 317.036 113.732 317.036C115.096 317.036 116.305 316.793 117.359 316.307C118.413 315.822 119.26 315.155 119.901 314.308C120.542 313.46 120.945 312.51 121.11 311.456L116.801 311.456C116.615 312.2 116.228 312.763 115.639 313.145C115.05 313.528 114.311 313.719 113.422 313.719C112.306 313.719 111.428 313.388 110.787 312.727C110.146 312.065 109.774 311.156 109.671 309.999L109.671 309.875L121.234 309.875C121.317 309.441 121.358 308.945 121.358 308.387C121.337 306.837 120.981 305.488 120.289 304.341C119.596 303.194 118.635 302.306 117.406 301.675C116.176 301.045 114.755 300.73 113.143 300.73C111.552 300.73 110.152 301.066 108.943 301.737C107.734 302.409 106.793 303.36 106.122 304.589ZM116.987 307.023L109.764 307.023C109.888 306.093 110.276 305.354 110.927 304.806C111.578 304.259 112.378 303.985 113.329 303.985C114.321 303.985 115.143 304.248 115.794 304.775C116.445 305.302 116.842 306.051 116.987 307.023Z"/>
<path d="M147.088 302.435C146.013 301.298 144.618 300.73 142.903 300.73C141.704 300.73 140.635 300.962 139.695 301.427C138.754 301.892 137.995 302.559 137.416 303.427C136.527 301.629 134.946 300.73 132.673 300.73C131.557 300.75 130.627 300.947 129.883 301.319C129.139 301.691 128.498 302.218 127.961 302.9L127.558 300.916L123.745 300.916L123.745 316.881L128.116 316.881L128.116 308.17C128.116 306.992 128.4 306.057 128.969 305.364C129.537 304.672 130.296 304.326 131.247 304.326C133.107 304.326 134.037 305.535 134.037 307.953L134.037 316.881L138.408 316.881L138.408 308.139C138.408 306.94 138.697 306.005 139.276 305.333C139.855 304.662 140.619 304.326 141.57 304.326C143.409 304.326 144.329 305.535 144.329 307.953L144.329 316.881L148.7 316.881L148.7 308.108C148.7 305.462 148.163 303.571 147.088 302.435Z"/>
<path d="M151.847 304.589C151.175 305.819 150.839 307.26 150.839 308.914C150.839 310.546 151.185 311.978 151.878 313.207C152.57 314.437 153.562 315.382 154.854 316.044C156.145 316.705 157.68 317.036 159.457 317.036C160.821 317.036 162.03 316.793 163.084 316.307C164.138 315.822 164.985 315.155 165.626 314.308C166.267 313.46 166.67 312.51 166.835 311.456L162.526 311.456C162.34 312.2 161.953 312.763 161.364 313.145C160.775 313.528 160.036 313.719 159.147 313.719C158.031 313.719 157.153 313.388 156.512 312.727C155.871 312.065 155.499 311.156 155.396 309.999L155.396 309.875L166.959 309.875C167.042 309.441 167.083 308.945 167.083 308.387C167.062 306.837 166.706 305.488 166.014 304.341C165.321 303.194 164.36 302.306 163.131 301.675C161.901 301.045 160.48 300.73 158.868 300.73C157.277 300.73 155.877 301.066 154.668 301.737C153.459 302.409 152.518 303.36 151.847 304.589ZM162.712 307.023L155.489 307.023C155.613 306.093 156.001 305.354 156.652 304.806C157.303 304.259 158.103 303.985 159.054 303.985C160.046 303.985 160.868 304.248 161.519 304.775C162.17 305.302 162.567 306.051 162.712 307.023Z"/>
<path d="M183.203 302.466C182.004 301.308 180.475 300.73 178.615 300.73C177.458 300.73 176.486 300.921 175.701 301.303C174.916 301.686 174.244 302.218 173.686 302.9L173.283 300.916L169.47 300.916L169.47 316.85L173.841 316.85L173.841 308.697C173.841 307.312 174.151 306.237 174.771 305.473C175.391 304.708 176.269 304.326 177.406 304.326C179.555 304.326 180.63 305.7 180.63 308.449L180.63 316.85L185.001 316.85L185.001 308.201C185.001 305.535 184.402 303.623 183.203 302.466Z"/>
<path d="M188.783 304.605L188.783 312.293C188.783 315.331 190.302 316.85 193.34 316.85L196.967 316.85L196.967 313.161L194.704 313.161C194.146 313.161 193.748 313.037 193.511 312.789C193.273 312.541 193.154 312.138 193.154 311.58L193.154 304.605L196.781 304.605L196.781 300.916L193.154 300.916L193.154 296.452L188.783 296.452L188.783 300.916L186.148 300.916L186.148 304.605L188.783 304.605Z"/>
<path d="M222.17 313.161L221.674 313.161C221.323 313.161 221.064 313.088 220.899 312.944C220.734 312.799 220.651 312.53 220.651 312.138L220.651 306.527C220.651 304.646 220.036 303.21 218.807 302.218C217.577 301.226 215.836 300.73 213.583 300.73C211.434 300.73 209.708 301.179 208.406 302.078C207.104 302.977 206.381 304.243 206.236 305.876L210.452 305.876C210.555 305.276 210.865 304.801 211.382 304.45C211.899 304.098 212.56 303.923 213.366 303.923C214.275 303.923 214.999 304.135 215.536 304.558C216.073 304.982 216.342 305.555 216.342 306.279L216.342 307.054L213.18 307.054C210.803 307.054 208.99 307.514 207.74 308.433C206.489 309.353 205.864 310.66 205.864 312.355C205.864 313.843 206.407 314.995 207.492 315.811C208.577 316.628 210.008 317.036 211.785 317.036C212.984 317.036 214.007 316.798 214.854 316.323C215.701 315.847 216.414 315.155 216.993 314.246C216.952 315.982 217.933 316.85 219.938 316.85L222.17 316.85L222.17 313.161ZM216.342 309.968L216.342 310.278C216.321 311.373 215.98 312.246 215.319 312.897C214.658 313.548 213.759 313.874 212.622 313.874C211.899 313.874 211.325 313.708 210.902 313.378C210.478 313.047 210.266 312.603 210.266 312.045C210.266 311.383 210.519 310.872 211.026 310.51C211.532 310.149 212.24 309.968 213.149 309.968L216.342 309.968Z"/>
<path d="M237.608 302.466C236.409 301.308 234.88 300.73 233.02 300.73C231.863 300.73 230.891 300.921 230.106 301.303C229.321 301.686 228.649 302.218 228.091 302.9L227.688 300.916L223.875 300.916L223.875 316.85L228.246 316.85L228.246 308.697C228.246 307.312 228.556 306.237 229.176 305.473C229.796 304.708 230.674 304.326 231.811 304.326C233.96 304.326 235.035 305.7 235.035 308.449L235.035 316.85L239.406 316.85L239.406 308.201C239.406 305.535 238.807 303.623 237.608 302.466Z"/>
<path d="M258.099 295.15L253.728 295.15L253.728 302.9C252.591 301.453 250.99 300.73 248.923 300.73C247.518 300.73 246.252 301.066 245.126 301.737C243.999 302.409 243.121 303.36 242.491 304.589C241.86 305.819 241.545 307.24 241.545 308.852C241.545 310.484 241.86 311.921 242.491 313.161C243.121 314.401 243.994 315.357 245.11 316.028C246.226 316.7 247.487 317.036 248.892 317.036C250.979 317.036 252.633 316.24 253.852 314.649L254.286 316.85L258.099 316.85L258.099 295.15ZM252.736 312.215C252.033 313.052 251.093 313.471 249.915 313.471C248.737 313.471 247.792 313.047 247.079 312.2C246.366 311.352 246.009 310.247 246.009 308.883C246.009 307.519 246.366 306.413 247.079 305.566C247.792 304.718 248.737 304.295 249.915 304.295C251.093 304.295 252.033 304.718 252.736 305.566C253.439 306.413 253.79 307.529 253.79 308.914C253.79 310.278 253.439 311.378 252.736 312.215Z"/>
<path d="M267.43 316.85L272.235 316.85L273.909 312.107L282.155 312.107L283.829 316.85L288.82 316.85L280.946 295.15L275.366 295.15L267.43 316.85ZM275.149 308.356L278.001 300.11L280.884 308.356L275.149 308.356Z"/>
<path d="M305.653 295.15L301.282 295.15L301.282 302.9C300.145 301.453 298.544 300.73 296.477 300.73C295.072 300.73 293.806 301.066 292.68 301.737C291.553 302.409 290.675 303.36 290.045 304.589C289.414 305.819 289.099 307.24 289.099 308.852C289.099 310.484 289.414 311.921 290.045 313.161C290.675 314.401 291.548 315.357 292.664 316.028C293.78 316.7 295.041 317.036 296.446 317.036C298.533 317.036 300.187 316.24 301.406 314.649L301.84 316.85L305.653 316.85L305.653 295.15ZM300.29 312.215C299.587 313.052 298.647 313.471 297.469 313.471C296.291 313.471 295.346 313.047 294.633 312.2C293.92 311.352 293.563 310.247 293.563 308.883C293.563 307.519 293.92 306.413 294.633 305.566C295.346 304.718 296.291 304.295 297.469 304.295C298.647 304.295 299.587 304.718 300.29 305.566C300.993 306.413 301.344 307.529 301.344 308.914C301.344 310.278 300.993 311.378 300.29 312.215Z"/>
<path d="M332.034 302.435C330.959 301.298 329.564 300.73 327.849 300.73C326.65 300.73 325.581 300.962 324.641 301.427C323.7 301.892 322.941 302.559 322.362 303.427C321.473 301.629 319.892 300.73 317.619 300.73C316.503 300.75 315.573 300.947 314.829 301.319C314.085 301.691 313.444 302.218 312.907 302.9L312.504 300.916L308.691 300.916L308.691 316.881L313.062 316.881L313.062 308.17C313.062 306.992 313.346 306.057 313.915 305.364C314.483 304.672 315.242 304.326 316.193 304.326C318.053 304.326 318.983 305.535 318.983 307.953L318.983 316.881L323.354 316.881L323.354 308.139C323.354 306.94 323.643 306.005 324.222 305.333C324.801 304.662 325.565 304.326 326.516 304.326C328.355 304.326 329.275 305.535 329.275 307.953L329.275 316.881L333.646 316.881L333.646 308.108C333.646 305.462 333.109 303.571 332.034 302.435Z"/>
<path d="M340.404 294.979C339.929 294.514 339.329 294.282 338.606 294.282C337.883 294.282 337.278 294.514 336.793 294.979C336.307 295.444 336.064 296.028 336.064 296.731C336.064 297.433 336.307 298.022 336.793 298.498C337.278 298.973 337.883 299.211 338.606 299.211C339.329 299.211 339.929 298.973 340.404 298.498C340.879 298.022 341.117 297.433 341.117 296.731C341.117 296.028 340.879 295.444 340.404 294.979ZM336.405 300.916L336.405 316.85L340.776 316.85L340.776 300.916L336.405 300.916Z"/>
<path d="M357.547 302.466C356.348 301.308 354.819 300.73 352.959 300.73C351.802 300.73 350.83 300.921 350.045 301.303C349.26 301.686 348.588 302.218 348.03 302.9L347.627 300.916L343.814 300.916L343.814 316.85L348.185 316.85L348.185 308.697C348.185 307.312 348.495 306.237 349.115 305.473C349.735 304.708 350.613 304.326 351.75 304.326C353.899 304.326 354.974 305.7 354.974 308.449L354.974 316.85L359.345 316.85L359.345 308.201C359.345 305.535 358.746 303.623 357.547 302.466Z"/>
<path d="M366.103 294.979C365.628 294.514 365.028 294.282 364.305 294.282C363.582 294.282 362.977 294.514 362.492 294.979C362.006 295.444 361.763 296.028 361.763 296.731C361.763 297.433 362.006 298.022 362.492 298.498C362.977 298.973 363.582 299.211 364.305 299.211C365.028 299.211 365.628 298.973 366.103 298.498C366.578 298.022 366.816 297.433 366.816 296.731C366.816 296.028 366.578 295.444 366.103 294.979ZM362.104 300.916L362.104 316.85L366.475 316.85L366.475 300.916L362.104 300.916Z"/>
<path d="M373.078 311.549L368.924 311.549C369.007 313.243 369.74 314.582 371.125 315.563C372.51 316.545 374.308 317.036 376.519 317.036C377.945 317.036 379.201 316.824 380.286 316.4C381.371 315.977 382.218 315.372 382.828 314.587C383.437 313.801 383.742 312.892 383.742 311.859C383.742 310.226 383.169 309.074 382.022 308.402C380.875 307.731 379.226 307.271 377.077 307.023C376.064 306.919 375.341 306.826 374.907 306.744C374.473 306.661 374.122 306.527 373.853 306.341C373.584 306.155 373.45 305.876 373.45 305.504C373.45 304.987 373.703 304.574 374.21 304.264C374.716 303.954 375.382 303.799 376.209 303.799C377.098 303.799 377.826 303.99 378.395 304.372C378.963 304.755 379.278 305.245 379.34 305.845L383.494 305.845C383.391 304.233 382.673 302.972 381.34 302.063C380.007 301.153 378.255 300.688 376.085 300.668C374.742 300.668 373.553 300.885 372.52 301.319C371.487 301.753 370.686 302.368 370.118 303.163C369.549 303.959 369.265 304.873 369.265 305.907C369.265 306.94 369.544 307.767 370.102 308.387C370.66 309.007 371.404 309.461 372.334 309.751C373.264 310.04 374.432 310.278 375.837 310.464C376.87 310.588 377.614 310.696 378.069 310.789C378.524 310.882 378.875 311.032 379.123 311.239C379.371 311.445 379.495 311.755 379.495 312.169C379.495 312.727 379.226 313.156 378.689 313.455C378.152 313.755 377.418 313.905 376.488 313.905C375.517 313.905 374.721 313.688 374.101 313.254C373.481 312.82 373.14 312.251 373.078 311.549Z"/>
<path d="M387.276 304.605L387.276 312.293C387.276 315.331 388.795 316.85 391.833 316.85L395.46 316.85L395.46 313.161L393.197 313.161C392.639 313.161 392.241 313.037 392.004 312.789C391.766 312.541 391.647 312.138 391.647 311.58L391.647 304.605L395.274 304.605L395.274 300.916L391.647 300.916L391.647 296.452L387.276 296.452L387.276 300.916L384.641 300.916L384.641 304.605L387.276 304.605Z"/>
<path d="M406.992 300.916L406.248 300.916C405.07 300.916 404.13 301.117 403.427 301.52C402.724 301.923 402.135 302.517 401.66 303.303L401.257 300.916L397.289 300.916L397.289 316.85L401.66 316.85L401.66 309.038C401.66 307.756 401.949 306.744 402.528 306C403.107 305.256 404.016 304.884 405.256 304.884L406.992 304.884L406.992 300.916Z"/>
<path d="M424.166 313.161L423.67 313.161C423.319 313.161 423.06 313.088 422.895 312.944C422.73 312.799 422.647 312.53 422.647 312.138L422.647 306.527C422.647 304.646 422.032 303.21 420.803 302.218C419.573 301.226 417.832 300.73 415.579 300.73C413.43 300.73 411.704 301.179 410.402 302.078C409.1 302.977 408.377 304.243 408.232 305.876L412.448 305.876C412.551 305.276 412.861 304.801 413.378 304.45C413.895 304.098 414.556 303.923 415.362 303.923C416.271 303.923 416.995 304.135 417.532 304.558C418.069 304.982 418.338 305.555 418.338 306.279L418.338 307.054L415.176 307.054C412.799 307.054 410.986 307.514 409.736 308.433C408.485 309.353 407.86 310.66 407.86 312.355C407.86 313.843 408.403 314.995 409.488 315.811C410.573 316.628 412.004 317.036 413.781 317.036C414.98 317.036 416.003 316.798 416.85 316.323C417.697 315.847 418.41 315.155 418.989 314.246C418.948 315.982 419.929 316.85 421.934 316.85L424.166 316.85L424.166 313.161ZM418.338 309.968L418.338 310.278C418.317 311.373 417.976 312.246 417.315 312.897C416.654 313.548 415.755 313.874 414.618 313.874C413.895 313.874 413.321 313.708 412.898 313.378C412.474 313.047 412.262 312.603 412.262 312.045C412.262 311.383 412.515 310.872 413.022 310.51C413.528 310.149 414.236 309.968 415.145 309.968L418.338 309.968Z"/>
<path d="M426.894 304.605L426.894 312.293C426.894 315.331 428.413 316.85 431.451 316.85L435.078 316.85L435.078 313.161L432.815 313.161C432.257 313.161 431.859 313.037 431.622 312.789C431.384 312.541 431.265 312.138 431.265 311.58L431.265 304.605L434.892 304.605L434.892 300.916L431.265 300.916L431.265 296.452L426.894 296.452L426.894 300.916L424.259 300.916L424.259 304.605L426.894 304.605Z"/>
<path d="M440.906 294.979C440.431 294.514 439.831 294.282 439.108 294.282C438.385 294.282 437.78 294.514 437.295 294.979C436.809 295.444 436.566 296.028 436.566 296.731C436.566 297.433 436.809 298.022 437.295 298.498C437.78 298.973 438.385 299.211 439.108 299.211C439.831 299.211 440.431 298.973 440.906 298.498C441.381 298.022 441.619 297.433 441.619 296.731C441.619 296.028 441.381 295.444 440.906 294.979ZM436.907 300.916L436.907 316.85L441.278 316.85L441.278 300.916L436.907 300.916Z"/>
<path d="M447.68 316.028C448.951 316.7 450.423 317.036 452.097 317.036C453.771 317.036 455.244 316.7 456.515 316.028C457.786 315.357 458.767 314.406 459.46 313.176C460.152 311.947 460.498 310.515 460.498 308.883C460.498 307.271 460.152 305.845 459.46 304.605C458.767 303.365 457.786 302.409 456.515 301.737C455.244 301.066 453.771 300.73 452.097 300.73C450.423 300.73 448.951 301.066 447.68 301.737C446.409 302.409 445.427 303.365 444.735 304.605C444.042 305.845 443.696 307.271 443.696 308.883C443.696 310.495 444.042 311.921 444.735 313.161C445.427 314.401 446.409 315.357 447.68 316.028ZM454.996 312.2C454.283 313.047 453.316 313.471 452.097 313.471C450.898 313.471 449.943 313.047 449.23 312.2C448.517 311.352 448.16 310.247 448.16 308.883C448.16 307.519 448.517 306.413 449.23 305.566C449.943 304.718 450.898 304.295 452.097 304.295C453.316 304.295 454.283 304.718 454.996 305.566C455.709 306.413 456.065 307.519 456.065 308.883C456.065 310.247 455.709 311.352 454.996 312.2Z"/>
<path d="M476.649 302.466C475.45 301.308 473.921 300.73 472.061 300.73C470.904 300.73 469.932 300.921 469.147 301.303C468.362 301.686 467.69 302.218 467.132 302.9L466.729 300.916L462.916 300.916L462.916 316.85L467.287 316.85L467.287 308.697C467.287 307.312 467.597 306.237 468.217 305.473C468.837 304.708 469.715 304.326 470.852 304.326C473.001 304.326 474.076 305.7 474.076 308.449L474.076 316.85L478.447 316.85L478.447 308.201C478.447 305.535 477.848 303.623 476.649 302.466Z"/>
<path d="M498.07 295.15L489.235 295.15L489.235 316.85L493.885 316.85L493.885 309.565L497.822 309.565L501.449 316.85L506.595 316.85L502.317 308.48C503.474 307.922 504.384 307.111 505.045 306.046C505.706 304.982 506.037 303.757 506.037 302.373C506.037 300.926 505.706 299.655 505.045 298.56C504.384 297.464 503.449 296.622 502.24 296.033C501.031 295.444 499.641 295.15 498.07 295.15ZM493.885 305.69L493.885 299.025L497.698 299.025C498.793 299.025 499.667 299.324 500.318 299.924C500.969 300.523 501.294 301.339 501.294 302.373C501.294 303.385 500.969 304.191 500.318 304.791C499.667 305.39 498.793 305.69 497.698 305.69L493.885 305.69Z"/>
<path d="M508.502 304.589C507.83 305.819 507.494 307.26 507.494 308.914C507.494 310.546 507.84 311.978 508.533 313.207C509.225 314.437 510.217 315.382 511.509 316.044C512.8 316.705 514.335 317.036 516.112 317.036C517.476 317.036 518.685 316.793 519.739 316.307C520.793 315.822 521.64 315.155 522.281 314.308C522.922 313.46 523.325 312.51 523.49 311.456L519.181 311.456C518.995 312.2 518.608 312.763 518.019 313.145C517.43 313.528 516.691 313.719 515.802 313.719C514.686 313.719 513.808 313.388 513.167 312.727C512.526 312.065 512.154 311.156 512.051 309.999L512.051 309.875L523.614 309.875C523.697 309.441 523.738 308.945 523.738 308.387C523.717 306.837 523.361 305.488 522.669 304.341C521.976 303.194 521.015 302.306 519.786 301.675C518.556 301.045 517.135 300.73 515.523 300.73C513.932 300.73 512.532 301.066 511.323 301.737C510.114 302.409 509.173 303.36 508.502 304.589ZM519.367 307.023L512.144 307.023C512.268 306.093 512.656 305.354 513.307 304.806C513.958 304.259 514.758 303.985 515.709 303.985C516.701 303.985 517.523 304.248 518.174 304.775C518.825 305.302 519.222 306.051 519.367 307.023Z"/>
<path d="M529.566 311.549L525.412 311.549C525.495 313.243 526.228 314.582 527.613 315.563C528.998 316.545 530.796 317.036 533.007 317.036C534.433 317.036 535.689 316.824 536.774 316.4C537.859 315.977 538.706 315.372 539.316 314.587C539.925 313.801 540.23 312.892 540.23 311.859C540.23 310.226 539.657 309.074 538.51 308.402C537.363 307.731 535.714 307.271 533.565 307.023C532.552 306.919 531.829 306.826 531.395 306.744C530.961 306.661 530.61 306.527 530.341 306.341C530.072 306.155 529.938 305.876 529.938 305.504C529.938 304.987 530.191 304.574 530.698 304.264C531.204 303.954 531.87 303.799 532.697 303.799C533.586 303.799 534.314 303.99 534.883 304.372C535.451 304.755 535.766 305.245 535.828 305.845L539.982 305.845C539.879 304.233 539.161 302.972 537.828 302.063C536.495 301.153 534.743 300.688 532.573 300.668C531.23 300.668 530.041 300.885 529.008 301.319C527.975 301.753 527.174 302.368 526.606 303.163C526.037 303.959 525.753 304.873 525.753 305.907C525.753 306.94 526.032 307.767 526.59 308.387C527.148 309.007 527.892 309.461 528.822 309.751C529.752 310.04 530.92 310.278 532.325 310.464C533.358 310.588 534.102 310.696 534.557 310.789C535.012 310.882 535.363 311.032 535.611 311.239C535.859 311.445 535.983 311.755 535.983 312.169C535.983 312.727 535.714 313.156 535.177 313.455C534.64 313.755 533.906 313.905 532.976 313.905C532.005 313.905 531.209 313.688 530.589 313.254C529.969 312.82 529.628 312.251 529.566 311.549Z"/>
<path d="M546.105 316.028C547.376 316.7 548.848 317.036 550.522 317.036C552.196 317.036 553.669 316.7 554.94 316.028C556.211 315.357 557.192 314.406 557.885 313.176C558.577 311.947 558.923 310.515 558.923 308.883C558.923 307.271 558.577 305.845 557.885 304.605C557.192 303.365 556.211 302.409 554.94 301.737C553.669 301.066 552.196 300.73 550.522 300.73C548.848 300.73 547.376 301.066 546.105 301.737C544.834 302.409 543.852 303.365 543.16 304.605C542.467 305.845 542.121 307.271 542.121 308.883C542.121 310.495 542.467 311.921 543.16 313.161C543.852 314.401 544.834 315.357 546.105 316.028ZM553.421 312.2C552.708 313.047 551.741 313.471 550.522 313.471C549.323 313.471 548.368 313.047 547.655 312.2C546.942 311.352 546.585 310.247 546.585 308.883C546.585 307.519 546.942 306.413 547.655 305.566C548.368 304.718 549.323 304.295 550.522 304.295C551.741 304.295 552.708 304.718 553.421 305.566C554.134 306.413 554.49 307.519 554.49 308.883C554.49 310.247 554.134 311.352 553.421 312.2Z"/>
<path d="M576.345 300.916L571.974 300.916L571.974 308.759C571.974 310.226 571.674 311.368 571.075 312.184C570.476 313.001 569.628 313.409 568.533 313.409C567.479 313.409 566.699 313.042 566.193 312.308C565.686 311.575 565.433 310.484 565.433 309.038L565.433 300.916L561.062 300.916L561.062 309.565C561.062 312.251 561.651 314.168 562.829 315.315C564.007 316.462 565.526 317.036 567.386 317.036C568.461 317.036 569.37 316.85 570.114 316.478C570.858 316.106 571.509 315.589 572.067 314.928L572.47 316.85L576.345 316.85L576.345 300.916Z"/>
<path d="M589.086 300.916L588.342 300.916C587.164 300.916 586.224 301.117 585.521 301.52C584.818 301.923 584.229 302.517 583.754 303.303L583.351 300.916L579.383 300.916L579.383 316.85L583.754 316.85L583.754 309.038C583.754 307.756 584.043 306.744 584.622 306C585.201 305.256 586.11 304.884 587.35 304.884L589.086 304.884L589.086 300.916Z"/>
<path d="M603.362 315.377C604.715 314.272 605.537 312.747 605.826 310.805L601.331 310.805C601.166 311.631 600.799 312.282 600.231 312.758C599.662 313.233 598.954 313.471 598.107 313.471C596.97 313.471 596.061 313.047 595.379 312.2C594.697 311.352 594.356 310.247 594.356 308.883C594.356 307.519 594.697 306.413 595.379 305.566C596.061 304.718 596.97 304.295 598.107 304.295C598.934 304.295 599.626 304.527 600.184 304.992C600.742 305.457 601.114 306.082 601.3 306.868L605.826 306.868C605.516 304.946 604.689 303.442 603.346 302.357C602.003 301.272 600.267 300.73 598.138 300.73C596.485 300.73 595.033 301.066 593.783 301.737C592.532 302.409 591.571 303.36 590.9 304.589C590.228 305.819 589.892 307.25 589.892 308.883C589.892 310.495 590.228 311.921 590.9 313.161C591.571 314.401 592.527 315.357 593.767 316.028C595.007 316.7 596.454 317.036 598.107 317.036C600.256 317.036 602.008 316.483 603.362 315.377Z"/>
<path d="M608.353 304.589C607.681 305.819 607.345 307.26 607.345 308.914C607.345 310.546 607.691 311.978 608.384 313.207C609.076 314.437 610.068 315.382 611.36 316.044C612.651 316.705 614.186 317.036 615.963 317.036C617.327 317.036 618.536 316.793 619.59 316.307C620.644 315.822 621.491 315.155 622.132 314.308C622.773 313.46 623.176 312.51 623.341 311.456L619.032 311.456C618.846 312.2 618.459 312.763 617.87 313.145C617.281 313.528 616.542 313.719 615.653 313.719C614.537 313.719 613.659 313.388 613.018 312.727C612.377 312.065 612.005 311.156 611.902 309.999L611.902 309.875L623.465 309.875C623.548 309.441 623.589 308.945 623.589 308.387C623.568 306.837 623.212 305.488 622.52 304.341C621.827 303.194 620.866 302.306 619.637 301.675C618.407 301.045 616.986 300.73 615.374 300.73C613.783 300.73 612.383 301.066 611.174 301.737C609.965 302.409 609.024 303.36 608.353 304.589ZM619.218 307.023L611.995 307.023C612.119 306.093 612.507 305.354 613.158 304.806C613.809 304.259 614.609 303.985 615.56 303.985C616.552 303.985 617.374 304.248 618.025 304.775C618.676 305.302 619.073 306.051 619.218 307.023Z"/>
<path d="M629.417 311.549L625.263 311.549C625.346 313.243 626.079 314.582 627.464 315.563C628.849 316.545 630.647 317.036 632.858 317.036C634.284 317.036 635.54 316.824 636.625 316.4C637.71 315.977 638.557 315.372 639.167 314.587C639.776 313.801 640.081 312.892 640.081 311.859C640.081 310.226 639.508 309.074 638.361 308.402C637.214 307.731 635.565 307.271 633.416 307.023C632.403 306.919 631.68 306.826 631.246 306.744C630.812 306.661 630.461 306.527 630.192 306.341C629.923 306.155 629.789 305.876 629.789 305.504C629.789 304.987 630.042 304.574 630.549 304.264C631.055 303.954 631.721 303.799 632.548 303.799C633.437 303.799 634.165 303.99 634.734 304.372C635.302 304.755 635.617 305.245 635.679 305.845L639.833 305.845C639.73 304.233 639.012 302.972 637.679 302.063C636.346 301.153 634.594 300.688 632.424 300.668C631.081 300.668 629.892 300.885 628.859 301.319C627.826 301.753 627.025 302.368 626.457 303.163C625.888 303.959 625.604 304.873 625.604 305.907C625.604 306.94 625.883 307.767 626.441 308.387C626.999 309.007 627.743 309.461 628.673 309.751C629.603 310.04 630.771 310.278 632.176 310.464C633.209 310.588 633.953 310.696 634.408 310.789C634.863 310.882 635.214 311.032 635.462 311.239C635.71 311.445 635.834 311.755 635.834 312.169C635.834 312.727 635.565 313.156 635.028 313.455C634.491 313.755 633.757 313.905 632.827 313.905C631.856 313.905 631.06 313.688 630.44 313.254C629.82 312.82 629.479 312.251 629.417 311.549Z"/>
<path d="M646.777 313.083C646.178 312.329 645.392 311.952 644.421 311.952C643.656 311.952 643.011 312.195 642.484 312.68C641.957 313.166 641.693 313.75 641.693 314.432C641.693 315.196 641.895 315.78 642.298 316.183C642.701 316.586 643.202 316.788 643.801 316.788C644.132 316.788 644.462 316.705 644.793 316.54C644.814 316.622 644.824 316.767 644.824 316.974C644.824 317.573 644.571 318.069 644.065 318.462C643.558 318.854 642.83 319.061 641.879 319.082L641.879 321.345C643.677 321.324 645.093 320.859 646.126 319.95C647.159 319.04 647.676 317.728 647.676 316.013C647.676 314.814 647.376 313.838 646.777 313.083Z"/>
<path d="M658.557 300.187C657.689 301.851 657.255 303.788 657.255 306C657.255 308.19 657.684 310.123 658.542 311.797C659.399 313.471 660.608 314.762 662.169 315.672C663.729 316.581 665.532 317.036 667.578 317.036C669.004 317.036 670.254 316.767 671.329 316.23C672.404 315.692 673.261 315 673.902 314.153L674.398 316.85L677.622 316.85L677.622 304.791L667.919 304.791L667.919 308.48L673.313 308.48L673.313 308.759C673.106 310.185 672.486 311.265 671.453 311.998C670.42 312.732 669.231 313.099 667.888 313.099C666.049 313.099 664.607 312.448 663.564 311.146C662.52 309.844 661.998 308.128 661.998 306C661.998 304.615 662.236 303.385 662.711 302.311C663.186 301.236 663.868 300.399 664.757 299.8C665.646 299.2 666.689 298.901 667.888 298.901C669.19 298.901 670.275 299.257 671.143 299.97C672.011 300.683 672.59 301.649 672.879 302.869L677.467 302.869C677.281 301.319 676.77 299.944 675.933 298.746C675.096 297.547 673.995 296.617 672.631 295.956C671.267 295.294 669.727 294.964 668.012 294.964C665.821 294.964 663.915 295.418 662.293 296.328C660.67 297.237 659.425 298.524 658.557 300.187Z"/>
<path d="M684.365 316.028C685.636 316.7 687.108 317.036 688.782 317.036C690.456 317.036 691.929 316.7 693.2 316.028C694.471 315.357 695.452 314.406 696.145 313.176C696.837 311.947 697.183 310.515 697.183 308.883C697.183 307.271 696.837 305.845 696.145 304.605C695.452 303.365 694.471 302.409 693.2 301.737C691.929 301.066 690.456 300.73 688.782 300.73C687.108 300.73 685.636 301.066 684.365 301.737C683.094 302.409 682.112 303.365 681.42 304.605C680.727 305.845 680.381 307.271 680.381 308.883C680.381 310.495 680.727 311.921 681.42 313.161C682.112 314.401 683.094 315.357 684.365 316.028ZM691.681 312.2C690.968 313.047 690.001 313.471 688.782 313.471C687.583 313.471 686.628 313.047 685.915 312.2C685.202 311.352 684.845 310.247 684.845 308.883C684.845 307.519 685.202 306.413 685.915 305.566C686.628 304.718 687.583 304.295 688.782 304.295C690.001 304.295 690.968 304.718 691.681 305.566C692.394 306.413 692.75 307.519 692.75 308.883C692.75 310.247 692.394 311.352 691.681 312.2Z"/>
<path d="M697.431 300.916L703.166 316.85L708.591 316.85L714.326 300.916L709.738 300.916L705.956 312.386L702.112 300.916L697.431 300.916Z"/>
<path d="M715.551 304.589C714.879 305.819 714.543 307.26 714.543 308.914C714.543 310.546 714.889 311.978 715.582 313.207C716.274 314.437 717.266 315.382 718.558 316.044C719.849 316.705 721.384 317.036 723.161 317.036C724.525 317.036 725.734 316.793 726.788 316.307C727.842 315.822 728.689 315.155 729.33 314.308C729.971 313.46 730.374 312.51 730.539 311.456L726.23 311.456C726.044 312.2 725.657 312.763 725.068 313.145C724.479 313.528 723.74 313.719 722.851 313.719C721.735 313.719 720.857 313.388 720.216 312.727C719.575 312.065 719.203 311.156 719.1 309.999L719.1 309.875L730.663 309.875C730.746 309.441 730.787 308.945 730.787 308.387C730.766 306.837 730.41 305.488 729.718 304.341C729.025 303.194 728.064 302.306 726.835 301.675C725.605 301.045 724.184 300.73 722.572 300.73C720.981 300.73 719.581 301.066 718.372 301.737C717.163 302.409 716.222 303.36 715.551 304.589ZM726.416 307.023L719.193 307.023C719.317 306.093 719.705 305.354 720.356 304.806C721.007 304.259 721.807 303.985 722.758 303.985C723.75 303.985 724.572 304.248 725.223 304.775C725.874 305.302 726.271 306.051 726.416 307.023Z"/>
<path d="M742.877 300.916L742.133 300.916C740.955 300.916 740.015 301.117 739.312 301.52C738.609 301.923 738.02 302.517 737.545 303.303L737.142 300.916L733.174 300.916L733.174 316.85L737.545 316.85L737.545 309.038C737.545 307.756 737.834 306.744 738.413 306C738.992 305.256 739.901 304.884 741.141 304.884L742.877 304.884L742.877 300.916Z"/>
<path d="M758.563 302.466C757.364 301.308 755.835 300.73 753.975 300.73C752.818 300.73 751.846 300.921 751.061 301.303C750.276 301.686 749.604 302.218 749.046 302.9L748.643 300.916L744.83 300.916L744.83 316.85L749.201 316.85L749.201 308.697C749.201 307.312 749.511 306.237 750.131 305.473C750.751 304.708 751.629 304.326 752.766 304.326C754.915 304.326 755.99 305.7 755.99 308.449L755.99 316.85L760.361 316.85L760.361 308.201C760.361 305.535 759.762 303.623 758.563 302.466Z"/>
<path d="M778.806 313.161L778.31 313.161C777.959 313.161 777.7 313.088 777.535 312.944C777.37 312.799 777.287 312.53 777.287 312.138L777.287 306.527C777.287 304.646 776.672 303.21 775.443 302.218C774.213 301.226 772.472 300.73 770.219 300.73C768.07 300.73 766.344 301.179 765.042 302.078C763.74 302.977 763.017 304.243 762.872 305.876L767.088 305.876C767.191 305.276 767.501 304.801 768.018 304.45C768.535 304.098 769.196 303.923 770.002 303.923C770.911 303.923 771.635 304.135 772.172 304.558C772.709 304.982 772.978 305.555 772.978 306.279L772.978 307.054L769.816 307.054C767.439 307.054 765.626 307.514 764.376 308.433C763.125 309.353 762.5 310.66 762.5 312.355C762.5 313.843 763.043 314.995 764.128 315.811C765.213 316.628 766.644 317.036 768.421 317.036C769.62 317.036 770.643 316.798 771.49 316.323C772.337 315.847 773.05 315.155 773.629 314.246C773.588 315.982 774.569 316.85 776.574 316.85L778.806 316.85L778.806 313.161ZM772.978 309.968L772.978 310.278C772.957 311.373 772.616 312.246 771.955 312.897C771.294 313.548 770.395 313.874 769.258 313.874C768.535 313.874 767.961 313.708 767.538 313.378C767.114 313.047 766.902 312.603 766.902 312.045C766.902 311.383 767.155 310.872 767.662 310.51C768.168 310.149 768.876 309.968 769.785 309.968L772.978 309.968Z"/>
<path d="M794.244 302.466C793.045 301.308 791.516 300.73 789.656 300.73C788.499 300.73 787.527 300.921 786.742 301.303C785.957 301.686 785.285 302.218 784.727 302.9L784.324 300.916L780.511 300.916L780.511 316.85L784.882 316.85L784.882 308.697C784.882 307.312 785.192 306.237 785.812 305.473C786.432 304.708 787.31 304.326 788.447 304.326C790.596 304.326 791.671 305.7 791.671 308.449L791.671 316.85L796.042 316.85L796.042 308.201C796.042 305.535 795.443 303.623 794.244 302.466Z"/>
<path d="M811.651 315.377C813.004 314.272 813.826 312.747 814.115 310.805L809.62 310.805C809.455 311.631 809.088 312.282 808.52 312.758C807.951 313.233 807.243 313.471 806.396 313.471C805.259 313.471 804.35 313.047 803.668 312.2C802.986 311.352 802.645 310.247 802.645 308.883C802.645 307.519 802.986 306.413 803.668 305.566C804.35 304.718 805.259 304.295 806.396 304.295C807.223 304.295 807.915 304.527 808.473 304.992C809.031 305.457 809.403 306.082 809.589 306.868L814.115 306.868C813.805 304.946 812.978 303.442 811.635 302.357C810.292 301.272 808.556 300.73 806.427 300.73C804.774 300.73 803.322 301.066 802.072 301.737C800.821 302.409 799.86 303.36 799.189 304.589C798.517 305.819 798.181 307.25 798.181 308.883C798.181 310.495 798.517 311.921 799.189 313.161C799.86 314.401 800.816 315.357 802.056 316.028C803.296 316.7 804.743 317.036 806.396 317.036C808.545 317.036 810.297 316.483 811.651 315.377Z"/>
<path d="M816.642 304.589C815.97 305.819 815.634 307.26 815.634 308.914C815.634 310.546 815.98 311.978 816.673 313.207C817.365 314.437 818.357 315.382 819.649 316.044C820.94 316.705 822.475 317.036 824.252 317.036C825.616 317.036 826.825 316.793 827.879 316.307C828.933 315.822 829.78 315.155 830.421 314.308C831.062 313.46 831.465 312.51 831.63 311.456L827.321 311.456C827.135 312.2 826.748 312.763 826.159 313.145C825.57 313.528 824.831 313.719 823.942 313.719C822.826 313.719 821.948 313.388 821.307 312.727C820.666 312.065 820.294 311.156 820.191 309.999L820.191 309.875L831.754 309.875C831.837 309.441 831.878 308.945 831.878 308.387C831.857 306.837 831.501 305.488 830.809 304.341C830.116 303.194 829.155 302.306 827.926 301.675C826.696 301.045 825.275 300.73 823.663 300.73C822.072 300.73 820.672 301.066 819.463 301.737C818.254 302.409 817.313 303.36 816.642 304.589ZM827.507 307.023L820.284 307.023C820.408 306.093 820.796 305.354 821.447 304.806C822.098 304.259 822.898 303.985 823.849 303.985C824.841 303.985 825.663 304.248 826.314 304.775C826.965 305.302 827.362 306.051 827.507 307.023Z"/>
<path d="M4.64306 353.85L9.44806 353.85L11.1221 349.107L19.3681 349.107L21.0421 353.85L26.0331 353.85L18.1591 332.15L12.5791 332.15L4.64306 353.85ZM12.3621 345.356L15.2141 337.11L18.0971 345.356L12.3621 345.356Z"/>
<path d="M39.7816 352.377C41.1352 351.272 41.9567 349.747 42.2461 347.805L37.7511 347.805C37.5857 348.631 37.2189 349.282 36.6506 349.758C36.0822 350.233 35.3744 350.471 34.5271 350.471C33.3904 350.471 32.4811 350.047 31.7991 349.2C31.1171 348.352 30.7761 347.247 30.7761 345.883C30.7761 344.519 31.1171 343.413 31.7991 342.566C32.4811 341.718 33.3904 341.295 34.5271 341.295C35.3537 341.295 36.0461 341.527 36.6041 341.992C37.1621 342.457 37.5341 343.082 37.7201 343.868L42.2461 343.868C41.9361 341.946 41.1094 340.442 39.7661 339.357C38.4227 338.272 36.6867 337.73 34.5581 337.73C32.9047 337.73 31.4529 338.066 30.2026 338.737C28.9522 339.409 27.9912 340.36 27.3196 341.589C26.6479 342.819 26.3121 344.25 26.3121 345.883C26.3121 347.495 26.6479 348.921 27.3196 350.161C27.9912 351.401 28.9471 352.357 30.1871 353.028C31.4271 353.7 32.8737 354.036 34.5271 354.036C36.6764 354.036 38.4279 353.483 39.7816 352.377Z"/>
<path d="M57.2346 352.377C58.5882 351.272 59.4097 349.747 59.6991 347.805L55.2041 347.805C55.0387 348.631 54.6719 349.282 54.1036 349.758C53.5352 350.233 52.8274 350.471 51.9801 350.471C50.8434 350.471 49.9341 350.047 49.2521 349.2C48.5701 348.352 48.2291 347.247 48.2291 345.883C48.2291 344.519 48.5701 343.413 49.2521 342.566C49.9341 341.718 50.8434 341.295 51.9801 341.295C52.8067 341.295 53.4991 341.527 54.0571 341.992C54.6151 342.457 54.9871 343.082 55.1731 343.868L59.6991 343.868C59.3891 341.946 58.5624 340.442 57.2191 339.357C55.8757 338.272 54.1397 337.73 52.0111 337.73C50.3577 337.73 48.9059 338.066 47.6556 338.737C46.4052 339.409 45.4442 340.36 44.7726 341.589C44.1009 342.819 43.7651 344.25 43.7651 345.883C43.7651 347.495 44.1009 348.921 44.7726 350.161C45.4442 351.401 46.4001 352.357 47.6401 353.028C48.8801 353.7 50.3267 354.036 51.9801 354.036C54.1294 354.036 55.8809 353.483 57.2346 352.377Z"/>
<path d="M62.2256 341.589C61.5539 342.819 61.2181 344.26 61.2181 345.914C61.2181 347.546 61.5642 348.978 62.2566 350.207C62.9489 351.437 63.9409 352.382 65.2326 353.044C66.5242 353.705 68.0587 354.036 69.8361 354.036C71.2001 354.036 72.4091 353.793 73.4631 353.307C74.5171 352.822 75.3644 352.155 76.0051 351.308C76.6457 350.46 77.0487 349.51 77.2141 348.456L72.9051 348.456C72.7191 349.2 72.3316 349.763 71.7426 350.145C71.1536 350.528 70.4147 350.719 69.5261 350.719C68.4101 350.719 67.5317 350.388 66.8911 349.727C66.2504 349.065 65.8784 348.156 65.7751 346.999L65.7751 346.875L77.3381 346.875C77.4207 346.441 77.4621 345.945 77.4621 345.387C77.4414 343.837 77.0849 342.488 76.3926 341.341C75.7002 340.194 74.7392 339.306 73.5096 338.675C72.2799 338.045 70.8591 337.73 69.2471 337.73C67.6557 337.73 66.2556 338.066 65.0466 338.737C63.8376 339.409 62.8972 340.36 62.2256 341.589ZM73.0911 344.023L65.8681 344.023C65.9921 343.093 66.3796 342.354 67.0306 341.806C67.6816 341.259 68.4824 340.985 69.4331 340.985C70.4251 340.985 71.2466 341.248 71.8976 341.775C72.5486 342.302 72.9464 343.051 73.0911 344.023Z"/>
<path d="M83.2901 348.549L79.1361 348.549C79.2187 350.243 79.9524 351.582 81.3371 352.563C82.7217 353.545 84.5197 354.036 86.7311 354.036C88.1571 354.036 89.4126 353.824 90.4976 353.4C91.5826 352.977 92.4299 352.372 93.0396 351.587C93.6492 350.801 93.9541 349.892 93.9541 348.859C93.9541 347.226 93.3806 346.074 92.2336 345.402C91.0866 344.731 89.4384 344.271 87.2891 344.023C86.2764 343.919 85.5531 343.826 85.1191 343.744C84.6851 343.661 84.3337 343.527 84.0651 343.341C83.7964 343.155 83.6621 342.876 83.6621 342.504C83.6621 341.987 83.9152 341.574 84.4216 341.264C84.9279 340.954 85.5944 340.799 86.4211 340.799C87.3097 340.799 88.0382 340.99 88.6066 341.372C89.1749 341.755 89.4901 342.245 89.5521 342.845L93.7061 342.845C93.6027 341.233 92.8846 339.972 91.5516 339.063C90.2186 338.153 88.4671 337.688 86.2971 337.668C84.9537 337.668 83.7654 337.885 82.7321 338.319C81.6987 338.753 80.8979 339.368 80.3296 340.163C79.7612 340.959 79.4771 341.873 79.4771 342.907C79.4771 343.94 79.7561 344.767 80.3141 345.387C80.8721 346.007 81.6161 346.461 82.5461 346.751C83.4761 347.04 84.6437 347.278 86.0491 347.464C87.0824 347.588 87.8264 347.696 88.2811 347.789C88.7357 347.882 89.0871 348.032 89.3351 348.239C89.5831 348.445 89.7071 348.755 89.7071 349.169C89.7071 349.727 89.4384 350.156 88.9011 350.455C88.3637 350.755 87.6301 350.905 86.7001 350.905C85.7287 350.905 84.9331 350.688 84.3131 350.254C83.6931 349.82 83.3521 349.251 83.2901 348.549Z"/>
<path d="M99.7201 348.549L95.5661 348.549C95.6487 350.243 96.3824 351.582 97.7671 352.563C99.1517 353.545 100.95 354.036 103.161 354.036C104.587 354.036 105.843 353.824 106.928 353.4C108.013 352.977 108.86 352.372 109.47 351.587C110.079 350.801 110.384 349.892 110.384 348.859C110.384 347.226 109.811 346.074 108.664 345.402C107.517 344.731 105.868 344.271 103.719 344.023C102.706 343.919 101.983 343.826 101.549 343.744C101.115 343.661 100.764 343.527 100.495 343.341C100.226 343.155 100.092 342.876 100.092 342.504C100.092 341.987 100.345 341.574 100.852 341.264C101.358 340.954 102.024 340.799 102.851 340.799C103.74 340.799 104.468 340.99 105.037 341.372C105.605 341.755 105.92 342.245 105.982 342.845L110.136 342.845C110.033 341.233 109.315 339.972 107.982 339.063C106.649 338.153 104.897 337.688 102.727 337.668C101.384 337.668 100.195 337.885 99.1621 338.319C98.1287 338.753 97.3279 339.368 96.7596 340.163C96.1912 340.959 95.9071 341.873 95.9071 342.907C95.9071 343.94 96.1861 344.767 96.7441 345.387C97.3021 346.007 98.0461 346.461 98.9761 346.751C99.9061 347.04 101.074 347.278 102.479 347.464C103.512 347.588 104.256 347.696 104.711 347.789C105.166 347.882 105.517 348.032 105.765 348.239C106.013 348.445 106.137 348.755 106.137 349.169C106.137 349.727 105.868 350.156 105.331 350.455C104.794 350.755 104.06 350.905 103.13 350.905C102.159 350.905 101.363 350.688 100.743 350.254C100.123 349.82 99.7821 349.251 99.7201 348.549Z"/>
<path d="M136.269 350.161L135.773 350.161C135.422 350.161 135.163 350.088 134.998 349.944C134.833 349.799 134.75 349.53 134.75 349.138L134.75 343.527C134.75 341.646 134.135 340.21 132.906 339.218C131.676 338.226 129.935 337.73 127.682 337.73C125.533 337.73 123.807 338.179 122.505 339.078C121.203 339.977 120.48 341.243 120.335 342.876L124.551 342.876C124.654 342.276 124.964 341.801 125.481 341.45C125.998 341.098 126.659 340.923 127.465 340.923C128.374 340.923 129.098 341.135 129.635 341.558C130.172 341.982 130.441 342.555 130.441 343.279L130.441 344.054L127.279 344.054C124.902 344.054 123.089 344.514 121.839 345.433C120.588 346.353 119.963 347.66 119.963 349.355C119.963 350.843 120.506 351.995 121.591 352.811C122.676 353.628 124.107 354.036 125.884 354.036C127.083 354.036 128.106 353.798 128.953 353.323C129.8 352.847 130.513 352.155 131.092 351.246C131.051 352.982 132.032 353.85 134.037 353.85L136.269 353.85L136.269 350.161ZM130.441 346.968L130.441 347.278C130.42 348.373 130.079 349.246 129.418 349.897C128.757 350.548 127.858 350.874 126.721 350.874C125.998 350.874 125.424 350.708 125.001 350.378C124.577 350.047 124.365 349.603 124.365 349.045C124.365 348.383 124.618 347.872 125.125 347.51C125.631 347.149 126.339 346.968 127.248 346.968L130.441 346.968Z"/>
<path d="M151.707 339.466C150.508 338.308 148.979 337.73 147.119 337.73C145.962 337.73 144.99 337.921 144.205 338.303C143.42 338.686 142.748 339.218 142.19 339.9L141.787 337.916L137.974 337.916L137.974 353.85L142.345 353.85L142.345 345.697C142.345 344.312 142.655 343.237 143.275 342.473C143.895 341.708 144.773 341.326 145.91 341.326C148.059 341.326 149.134 342.7 149.134 345.449L149.134 353.85L153.505 353.85L153.505 345.201C153.505 342.535 152.906 340.623 151.707 339.466Z"/>
<path d="M172.198 332.15L167.827 332.15L167.827 339.9C166.69 338.453 165.089 337.73 163.022 337.73C161.617 337.73 160.351 338.066 159.225 338.737C158.098 339.409 157.22 340.36 156.59 341.589C155.959 342.819 155.644 344.24 155.644 345.852C155.644 347.484 155.959 348.921 156.59 350.161C157.22 351.401 158.093 352.357 159.209 353.028C160.325 353.7 161.586 354.036 162.991 354.036C165.078 354.036 166.732 353.24 167.951 351.649L168.385 353.85L172.198 353.85L172.198 332.15ZM166.835 349.215C166.132 350.052 165.192 350.471 164.014 350.471C162.836 350.471 161.891 350.047 161.178 349.2C160.465 348.352 160.108 347.247 160.108 345.883C160.108 344.519 160.465 343.413 161.178 342.566C161.891 341.718 162.836 341.295 164.014 341.295C165.192 341.295 166.132 341.718 166.835 342.566C167.538 343.413 167.889 344.529 167.889 345.914C167.889 347.278 167.538 348.378 166.835 349.215Z"/>
<path d="M192.1 332.15L183.265 332.15L183.265 353.85L187.915 353.85L187.915 346.565L191.852 346.565L195.479 353.85L200.625 353.85L196.347 345.48C197.504 344.922 198.414 344.111 199.075 343.046C199.736 341.982 200.067 340.757 200.067 339.373C200.067 337.926 199.736 336.655 199.075 335.56C198.414 334.464 197.479 333.622 196.27 333.033C195.061 332.444 193.671 332.15 192.1 332.15ZM187.915 342.69L187.915 336.025L191.728 336.025C192.823 336.025 193.697 336.324 194.348 336.924C194.999 337.523 195.324 338.339 195.324 339.373C195.324 340.385 194.999 341.191 194.348 341.791C193.697 342.39 192.823 342.69 191.728 342.69L187.915 342.69Z"/>
<path d="M202.532 341.589C201.86 342.819 201.524 344.26 201.524 345.914C201.524 347.546 201.87 348.978 202.563 350.207C203.255 351.437 204.247 352.382 205.539 353.044C206.83 353.705 208.365 354.036 210.142 354.036C211.506 354.036 212.715 353.793 213.769 353.307C214.823 352.822 215.67 352.155 216.311 351.308C216.952 350.46 217.355 349.51 217.52 348.456L213.211 348.456C213.025 349.2 212.638 349.763 212.049 350.145C211.46 350.528 210.721 350.719 209.832 350.719C208.716 350.719 207.838 350.388 207.197 349.727C206.556 349.065 206.184 348.156 206.081 346.999L206.081 346.875L217.644 346.875C217.727 346.441 217.768 345.945 217.768 345.387C217.747 343.837 217.391 342.488 216.699 341.341C216.006 340.194 215.045 339.306 213.816 338.675C212.586 338.045 211.165 337.73 209.553 337.73C207.962 337.73 206.562 338.066 205.353 338.737C204.144 339.409 203.203 340.36 202.532 341.589ZM213.397 344.023L206.174 344.023C206.298 343.093 206.686 342.354 207.337 341.806C207.988 341.259 208.788 340.985 209.739 340.985C210.731 340.985 211.553 341.248 212.204 341.775C212.855 342.302 213.252 343.051 213.397 344.023Z"/>
<path d="M223.596 348.549L219.442 348.549C219.525 350.243 220.258 351.582 221.643 352.563C223.028 353.545 224.826 354.036 227.037 354.036C228.463 354.036 229.719 353.824 230.804 353.4C231.889 352.977 232.736 352.372 233.346 351.587C233.955 350.801 234.26 349.892 234.26 348.859C234.26 347.226 233.687 346.074 232.54 345.402C231.393 344.731 229.744 344.271 227.595 344.023C226.582 343.919 225.859 343.826 225.425 343.744C224.991 343.661 224.64 343.527 224.371 343.341C224.102 343.155 223.968 342.876 223.968 342.504C223.968 341.987 224.221 341.574 224.728 341.264C225.234 340.954 225.9 340.799 226.727 340.799C227.616 340.799 228.344 340.99 228.913 341.372C229.481 341.755 229.796 342.245 229.858 342.845L234.012 342.845C233.909 341.233 233.191 339.972 231.858 339.063C230.525 338.153 228.773 337.688 226.603 337.668C225.26 337.668 224.071 337.885 223.038 338.319C222.005 338.753 221.204 339.368 220.636 340.163C220.067 340.959 219.783 341.873 219.783 342.907C219.783 343.94 220.062 344.767 220.62 345.387C221.178 346.007 221.922 346.461 222.852 346.751C223.782 347.04 224.95 347.278 226.355 347.464C227.388 347.588 228.132 347.696 228.587 347.789C229.042 347.882 229.393 348.032 229.641 348.239C229.889 348.445 230.013 348.755 230.013 349.169C230.013 349.727 229.744 350.156 229.207 350.455C228.67 350.755 227.936 350.905 227.006 350.905C226.035 350.905 225.239 350.688 224.619 350.254C223.999 349.82 223.658 349.251 223.596 348.549Z"/>
<path d="M237.159 341.589C236.487 342.819 236.151 344.26 236.151 345.914C236.151 347.546 236.497 348.978 237.19 350.207C237.882 351.437 238.874 352.382 240.166 353.044C241.457 353.705 242.992 354.036 244.769 354.036C246.133 354.036 247.342 353.793 248.396 353.307C249.45 352.822 250.297 352.155 250.938 351.308C251.579 350.46 251.982 349.51 252.147 348.456L247.838 348.456C247.652 349.2 247.265 349.763 246.676 350.145C246.087 350.528 245.348 350.719 244.459 350.719C243.343 350.719 242.465 350.388 241.824 349.727C241.183 349.065 240.811 348.156 240.708 346.999L240.708 346.875L252.271 346.875C252.354 346.441 252.395 345.945 252.395 345.387C252.374 343.837 252.018 342.488 251.326 341.341C250.633 340.194 249.672 339.306 248.443 338.675C247.213 338.045 245.792 337.73 244.18 337.73C242.589 337.73 241.189 338.066 239.98 338.737C238.771 339.409 237.83 340.36 237.159 341.589ZM248.024 344.023L240.801 344.023C240.925 343.093 241.313 342.354 241.964 341.806C242.615 341.259 243.415 340.985 244.366 340.985C245.358 340.985 246.18 341.248 246.831 341.775C247.482 342.302 247.879 343.051 248.024 344.023Z"/>
<path d="M270.468 350.161L269.972 350.161C269.621 350.161 269.362 350.088 269.197 349.944C269.032 349.799 268.949 349.53 268.949 349.138L268.949 343.527C268.949 341.646 268.334 340.21 267.105 339.218C265.875 338.226 264.134 337.73 261.881 337.73C259.732 337.73 258.006 338.179 256.704 339.078C255.402 339.977 254.679 341.243 254.534 342.876L258.75 342.876C258.853 342.276 259.163 341.801 259.68 341.45C260.197 341.098 260.858 340.923 261.664 340.923C262.573 340.923 263.297 341.135 263.834 341.558C264.371 341.982 264.64 342.555 264.64 343.279L264.64 344.054L261.478 344.054C259.101 344.054 257.288 344.514 256.038 345.433C254.787 346.353 254.162 347.66 254.162 349.355C254.162 350.843 254.705 351.995 255.79 352.811C256.875 353.628 258.306 354.036 260.083 354.036C261.282 354.036 262.305 353.798 263.152 353.323C263.999 352.847 264.712 352.155 265.291 351.246C265.25 352.982 266.231 353.85 268.236 353.85L270.468 353.85L270.468 350.161ZM264.64 346.968L264.64 347.278C264.619 348.373 264.278 349.246 263.617 349.897C262.956 350.548 262.057 350.874 260.92 350.874C260.197 350.874 259.623 350.708 259.2 350.378C258.776 350.047 258.564 349.603 258.564 349.045C258.564 348.383 258.817 347.872 259.324 347.51C259.83 347.149 260.538 346.968 261.447 346.968L264.64 346.968Z"/>
<path d="M281.876 337.916L281.132 337.916C279.954 337.916 279.014 338.117 278.311 338.52C277.608 338.923 277.019 339.517 276.544 340.303L276.141 337.916L272.173 337.916L272.173 353.85L276.544 353.85L276.544 346.038C276.544 344.756 276.833 343.744 277.412 343C277.991 342.256 278.9 341.884 280.14 341.884L281.876 341.884L281.876 337.916Z"/>
<path d="M296.152 352.377C297.505 351.272 298.327 349.747 298.616 347.805L294.121 347.805C293.956 348.631 293.589 349.282 293.021 349.758C292.452 350.233 291.744 350.471 290.897 350.471C289.76 350.471 288.851 350.047 288.169 349.2C287.487 348.352 287.146 347.247 287.146 345.883C287.146 344.519 287.487 343.413 288.169 342.566C288.851 341.718 289.76 341.295 290.897 341.295C291.724 341.295 292.416 341.527 292.974 341.992C293.532 342.457 293.904 343.082 294.09 343.868L298.616 343.868C298.306 341.946 297.479 340.442 296.136 339.357C294.793 338.272 293.057 337.73 290.928 337.73C289.275 337.73 287.823 338.066 286.573 338.737C285.322 339.409 284.361 340.36 283.69 341.589C283.018 342.819 282.682 344.25 282.682 345.883C282.682 347.495 283.018 348.921 283.69 350.161C284.361 351.401 285.317 352.357 286.557 353.028C287.797 353.7 289.244 354.036 290.897 354.036C293.046 354.036 294.798 353.483 296.152 352.377Z"/>
<path d="M314.69 339.466C313.481 338.308 311.936 337.73 310.055 337.73C308.092 337.73 306.521 338.443 305.343 339.869L305.343 332.15L300.972 332.15L300.972 353.85L305.343 353.85L305.343 345.666C305.343 344.302 305.658 343.237 306.289 342.473C306.919 341.708 307.792 341.326 308.908 341.326C309.983 341.326 310.789 341.672 311.326 342.364C311.863 343.057 312.132 344.064 312.132 345.387L312.132 353.85L316.503 353.85L316.503 345.201C316.503 342.535 315.899 340.623 314.69 339.466Z"/>
<path d="M330.314 353.028C331.585 353.7 333.057 354.036 334.731 354.036C336.405 354.036 337.878 353.7 339.149 353.028C340.42 352.357 341.401 351.406 342.094 350.176C342.786 348.947 343.132 347.515 343.132 345.883C343.132 344.271 342.786 342.845 342.094 341.605C341.401 340.365 340.42 339.409 339.149 338.737C337.878 338.066 336.405 337.73 334.731 337.73C333.057 337.73 331.585 338.066 330.314 338.737C329.043 339.409 328.061 340.365 327.369 341.605C326.676 342.845 326.33 344.271 326.33 345.883C326.33 347.495 326.676 348.921 327.369 350.161C328.061 351.401 329.043 352.357 330.314 353.028ZM337.63 349.2C336.917 350.047 335.95 350.471 334.731 350.471C333.532 350.471 332.577 350.047 331.864 349.2C331.151 348.352 330.794 347.247 330.794 345.883C330.794 344.519 331.151 343.413 331.864 342.566C332.577 341.718 333.532 341.295 334.731 341.295C335.95 341.295 336.917 341.718 337.63 342.566C338.343 343.413 338.699 344.519 338.699 345.883C338.699 347.247 338.343 348.352 337.63 349.2Z"/>
<path d="M359.283 339.466C358.084 338.308 356.555 337.73 354.695 337.73C353.538 337.73 352.566 337.921 351.781 338.303C350.996 338.686 350.324 339.218 349.766 339.9L349.363 337.916L345.55 337.916L345.55 353.85L349.921 353.85L349.921 345.697C349.921 344.312 350.231 343.237 350.851 342.473C351.471 341.708 352.349 341.326 353.486 341.326C355.635 341.326 356.71 342.7 356.71 345.449L356.71 353.85L361.081 353.85L361.081 345.201C361.081 342.535 360.482 340.623 359.283 339.466Z"/>
<path d="M371.869 332.15L371.869 353.85L386.78 353.85L386.78 349.851L376.519 349.851L376.519 344.829L384.579 344.829L384.579 341.016L376.519 341.016L376.519 336.149L386.439 336.149L386.439 332.15L371.869 332.15Z"/>
<path d="M402.962 339.466C401.763 338.308 400.234 337.73 398.374 337.73C397.217 337.73 396.245 337.921 395.46 338.303C394.675 338.686 394.003 339.218 393.445 339.9L393.042 337.916L389.229 337.916L389.229 353.85L393.6 353.85L393.6 345.697C393.6 344.312 393.91 343.237 394.53 342.473C395.15 341.708 396.028 341.326 397.165 341.326C399.314 341.326 400.389 342.7 400.389 345.449L400.389 353.85L404.76 353.85L404.76 345.201C404.76 342.535 404.161 340.623 402.962 339.466Z"/>
<path d="M408.542 341.605L408.542 349.293C408.542 352.331 410.061 353.85 413.099 353.85L416.726 353.85L416.726 350.161L414.463 350.161C413.905 350.161 413.507 350.037 413.27 349.789C413.032 349.541 412.913 349.138 412.913 348.58L412.913 341.605L416.54 341.605L416.54 337.916L412.913 337.916L412.913 333.452L408.542 333.452L408.542 337.916L405.907 337.916L405.907 341.605L408.542 341.605Z"/>
<path d="M418.695 341.589C418.023 342.819 417.687 344.26 417.687 345.914C417.687 347.546 418.033 348.978 418.726 350.207C419.418 351.437 420.41 352.382 421.702 353.044C422.993 353.705 424.528 354.036 426.305 354.036C427.669 354.036 428.878 353.793 429.932 353.307C430.986 352.822 431.833 352.155 432.474 351.308C433.115 350.46 433.518 349.51 433.683 348.456L429.374 348.456C429.188 349.2 428.801 349.763 428.212 350.145C427.623 350.528 426.884 350.719 425.995 350.719C424.879 350.719 424.001 350.388 423.36 349.727C422.719 349.065 422.347 348.156 422.244 346.999L422.244 346.875L433.807 346.875C433.89 346.441 433.931 345.945 433.931 345.387C433.91 343.837 433.554 342.488 432.862 341.341C432.169 340.194 431.208 339.306 429.979 338.675C428.749 338.045 427.328 337.73 425.716 337.73C424.125 337.73 422.725 338.066 421.516 338.737C420.307 339.409 419.366 340.36 418.695 341.589ZM429.56 344.023L422.337 344.023C422.461 343.093 422.849 342.354 423.5 341.806C424.151 341.259 424.951 340.985 425.902 340.985C426.894 340.985 427.716 341.248 428.367 341.775C429.018 342.302 429.415 343.051 429.56 344.023Z"/>
<path d="M446.021 337.916L445.277 337.916C444.099 337.916 443.159 338.117 442.456 338.52C441.753 338.923 441.164 339.517 440.689 340.303L440.286 337.916L436.318 337.916L436.318 353.85L440.689 353.85L440.689 346.038C440.689 344.756 440.978 343.744 441.557 343C442.136 342.256 443.045 341.884 444.285 341.884L446.021 341.884L446.021 337.916Z"/>
<path d="M460.979 338.737C459.873 338.066 458.607 337.73 457.181 337.73C456.086 337.73 455.12 337.947 454.283 338.381C453.446 338.815 452.758 339.393 452.221 340.117L451.787 337.916L447.974 337.916L447.974 360.05L452.345 360.05L452.345 351.835C453.502 353.302 455.104 354.036 457.15 354.036C458.576 354.036 459.847 353.7 460.963 353.028C462.079 352.357 462.952 351.411 463.583 350.192C464.213 348.972 464.528 347.546 464.528 345.914C464.528 344.281 464.213 342.845 463.583 341.605C462.952 340.365 462.084 339.409 460.979 338.737ZM459.01 349.184C458.287 350.042 457.336 350.471 456.158 350.471C454.98 350.471 454.04 350.047 453.337 349.2C452.634 348.352 452.283 347.236 452.283 345.852C452.283 344.488 452.634 343.387 453.337 342.55C454.04 341.713 454.98 341.295 456.158 341.295C457.336 341.295 458.287 341.713 459.01 342.55C459.733 343.387 460.095 344.488 460.095 345.852C460.095 347.216 459.733 348.327 459.01 349.184Z"/>
<path d="M476.649 337.916L475.905 337.916C474.727 337.916 473.787 338.117 473.084 338.52C472.381 338.923 471.792 339.517 471.317 340.303L470.914 337.916L466.946 337.916L466.946 353.85L471.317 353.85L471.317 346.038C471.317 344.756 471.606 343.744 472.185 343C472.764 342.256 473.673 341.884 474.913 341.884L476.649 341.884L476.649 337.916Z"/>
<path d="M482.601 331.979C482.126 331.514 481.526 331.282 480.803 331.282C480.08 331.282 479.475 331.514 478.99 331.979C478.504 332.444 478.261 333.028 478.261 333.731C478.261 334.433 478.504 335.022 478.99 335.498C479.475 335.973 480.08 336.211 480.803 336.211C481.526 336.211 482.126 335.973 482.601 335.498C483.076 335.022 483.314 334.433 483.314 333.731C483.314 333.028 483.076 332.444 482.601 331.979ZM478.602 337.916L478.602 353.85L482.973 353.85L482.973 337.916L478.602 337.916Z"/>
<path d="M489.576 348.549L485.422 348.549C485.505 350.243 486.238 351.582 487.623 352.563C489.008 353.545 490.806 354.036 493.017 354.036C494.443 354.036 495.699 353.824 496.784 353.4C497.869 352.977 498.716 352.372 499.326 351.587C499.935 350.801 500.24 349.892 500.24 348.859C500.24 347.226 499.667 346.074 498.52 345.402C497.373 344.731 495.724 344.271 493.575 344.023C492.562 343.919 491.839 343.826 491.405 343.744C490.971 343.661 490.62 343.527 490.351 343.341C490.082 343.155 489.948 342.876 489.948 342.504C489.948 341.987 490.201 341.574 490.708 341.264C491.214 340.954 491.88 340.799 492.707 340.799C493.596 340.799 494.324 340.99 494.893 341.372C495.461 341.755 495.776 342.245 495.838 342.845L499.992 342.845C499.889 341.233 499.171 339.972 497.838 339.063C496.505 338.153 494.753 337.688 492.583 337.668C491.24 337.668 490.051 337.885 489.018 338.319C487.985 338.753 487.184 339.368 486.616 340.163C486.047 340.959 485.763 341.873 485.763 342.907C485.763 343.94 486.042 344.767 486.6 345.387C487.158 346.007 487.902 346.461 488.832 346.751C489.762 347.04 490.93 347.278 492.335 347.464C493.368 347.588 494.112 347.696 494.567 347.789C495.022 347.882 495.373 348.032 495.621 348.239C495.869 348.445 495.993 348.755 495.993 349.169C495.993 349.727 495.724 350.156 495.187 350.455C494.65 350.755 493.916 350.905 492.986 350.905C492.015 350.905 491.219 350.688 490.599 350.254C489.979 349.82 489.638 349.251 489.576 348.549Z"/>
<path d="M503.139 341.589C502.467 342.819 502.131 344.26 502.131 345.914C502.131 347.546 502.477 348.978 503.17 350.207C503.862 351.437 504.854 352.382 506.146 353.044C507.437 353.705 508.972 354.036 510.749 354.036C512.113 354.036 513.322 353.793 514.376 353.307C515.43 352.822 516.277 352.155 516.918 351.308C517.559 350.46 517.962 349.51 518.127 348.456L513.818 348.456C513.632 349.2 513.245 349.763 512.656 350.145C512.067 350.528 511.328 350.719 510.439 350.719C509.323 350.719 508.445 350.388 507.804 349.727C507.163 349.065 506.791 348.156 506.688 346.999L506.688 346.875L518.251 346.875C518.334 346.441 518.375 345.945 518.375 345.387C518.354 343.837 517.998 342.488 517.306 341.341C516.613 340.194 515.652 339.306 514.423 338.675C513.193 338.045 511.772 337.73 510.16 337.73C508.569 337.73 507.169 338.066 505.96 338.737C504.751 339.409 503.81 340.36 503.139 341.589ZM514.004 344.023L506.781 344.023C506.905 343.093 507.293 342.354 507.944 341.806C508.595 341.259 509.395 340.985 510.346 340.985C511.338 340.985 512.16 341.248 512.811 341.775C513.462 342.302 513.859 343.051 514.004 344.023Z"/>
<path d="M527.613 332.15L527.613 336.149L533.875 336.149L533.875 353.85L538.525 353.85L538.525 336.149L544.787 336.149L544.787 332.15L527.613 332.15Z"/>
<path d="M544.586 341.589C543.914 342.819 543.578 344.26 543.578 345.914C543.578 347.546 543.924 348.978 544.617 350.207C545.309 351.437 546.301 352.382 547.593 353.044C548.884 353.705 550.419 354.036 552.196 354.036C553.56 354.036 554.769 353.793 555.823 353.307C556.877 352.822 557.724 352.155 558.365 351.308C559.006 350.46 559.409 349.51 559.574 348.456L555.265 348.456C555.079 349.2 554.692 349.763 554.103 350.145C553.514 350.528 552.775 350.719 551.886 350.719C550.77 350.719 549.892 350.388 549.251 349.727C548.61 349.065 548.238 348.156 548.135 346.999L548.135 346.875L559.698 346.875C559.781 346.441 559.822 345.945 559.822 345.387C559.801 343.837 559.445 342.488 558.753 341.341C558.06 340.194 557.099 339.306 555.87 338.675C554.64 338.045 553.219 337.73 551.607 337.73C550.016 337.73 548.616 338.066 547.407 338.737C546.198 339.409 545.257 340.36 544.586 341.589ZM555.451 344.023L548.228 344.023C548.352 343.093 548.74 342.354 549.391 341.806C550.042 341.259 550.842 340.985 551.793 340.985C552.785 340.985 553.607 341.248 554.258 341.775C554.909 342.302 555.306 343.051 555.451 344.023Z"/>
<path d="M575.059 352.377C576.412 351.272 577.234 349.747 577.523 347.805L573.028 347.805C572.863 348.631 572.496 349.282 571.928 349.758C571.359 350.233 570.651 350.471 569.804 350.471C568.667 350.471 567.758 350.047 567.076 349.2C566.394 348.352 566.053 347.247 566.053 345.883C566.053 344.519 566.394 343.413 567.076 342.566C567.758 341.718 568.667 341.295 569.804 341.295C570.631 341.295 571.323 341.527 571.881 341.992C572.439 342.457 572.811 343.082 572.997 343.868L577.523 343.868C577.213 341.946 576.386 340.442 575.043 339.357C573.7 338.272 571.964 337.73 569.835 337.73C568.182 337.73 566.73 338.066 565.48 338.737C564.229 339.409 563.268 340.36 562.597 341.589C561.925 342.819 561.589 344.25 561.589 345.883C561.589 347.495 561.925 348.921 562.597 350.161C563.268 351.401 564.224 352.357 565.464 353.028C566.704 353.7 568.151 354.036 569.804 354.036C571.953 354.036 573.705 353.483 575.059 352.377Z"/>
<path d="M593.597 339.466C592.388 338.308 590.843 337.73 588.962 337.73C586.999 337.73 585.428 338.443 584.25 339.869L584.25 332.15L579.879 332.15L579.879 353.85L584.25 353.85L584.25 345.666C584.25 344.302 584.565 343.237 585.196 342.473C585.826 341.708 586.699 341.326 587.815 341.326C588.89 341.326 589.696 341.672 590.233 342.364C590.77 343.057 591.039 344.064 591.039 345.387L591.039 353.85L595.41 353.85L595.41 345.201C595.41 342.535 594.806 340.623 593.597 339.466Z"/>
<path d="M611.902 339.466C610.703 338.308 609.174 337.73 607.314 337.73C606.157 337.73 605.185 337.921 604.4 338.303C603.615 338.686 602.943 339.218 602.385 339.9L601.982 337.916L598.169 337.916L598.169 353.85L602.54 353.85L602.54 345.697C602.54 344.312 602.85 343.237 603.47 342.473C604.09 341.708 604.968 341.326 606.105 341.326C608.254 341.326 609.329 342.7 609.329 345.449L609.329 353.85L613.7 353.85L613.7 345.201C613.7 342.535 613.101 340.623 611.902 339.466Z"/>
<path d="M619.823 353.028C621.094 353.7 622.566 354.036 624.24 354.036C625.914 354.036 627.387 353.7 628.658 353.028C629.929 352.357 630.91 351.406 631.603 350.176C632.295 348.947 632.641 347.515 632.641 345.883C632.641 344.271 632.295 342.845 631.603 341.605C630.91 340.365 629.929 339.409 628.658 338.737C627.387 338.066 625.914 337.73 624.24 337.73C622.566 337.73 621.094 338.066 619.823 338.737C618.552 339.409 617.57 340.365 616.878 341.605C616.185 342.845 615.839 344.271 615.839 345.883C615.839 347.495 616.185 348.921 616.878 350.161C617.57 351.401 618.552 352.357 619.823 353.028ZM627.139 349.2C626.426 350.047 625.459 350.471 624.24 350.471C623.041 350.471 622.086 350.047 621.373 349.2C620.66 348.352 620.303 347.247 620.303 345.883C620.303 344.519 620.66 343.413 621.373 342.566C622.086 341.718 623.041 341.295 624.24 341.295C625.459 341.295 626.426 341.718 627.139 342.566C627.852 343.413 628.208 344.519 628.208 345.883C628.208 347.247 627.852 348.352 627.139 349.2Z"/>
<path d="M635.059 332.15L635.059 353.85L639.43 353.85L639.43 332.15L635.059 332.15Z"/>
<path d="M645.832 353.028C647.103 353.7 648.575 354.036 650.249 354.036C651.923 354.036 653.396 353.7 654.667 353.028C655.938 352.357 656.919 351.406 657.612 350.176C658.304 348.947 658.65 347.515 658.65 345.883C658.65 344.271 658.304 342.845 657.612 341.605C656.919 340.365 655.938 339.409 654.667 338.737C653.396 338.066 651.923 337.73 650.249 337.73C648.575 337.73 647.103 338.066 645.832 338.737C644.561 339.409 643.579 340.365 642.887 341.605C642.194 342.845 641.848 344.271 641.848 345.883C641.848 347.495 642.194 348.921 642.887 350.161C643.579 351.401 644.561 352.357 645.832 353.028ZM653.148 349.2C652.435 350.047 651.468 350.471 650.249 350.471C649.05 350.471 648.095 350.047 647.382 349.2C646.669 348.352 646.312 347.247 646.312 345.883C646.312 344.519 646.669 343.413 647.382 342.566C648.095 341.718 649.05 341.295 650.249 341.295C651.468 341.295 652.435 341.718 653.148 342.566C653.861 343.413 654.217 344.519 654.217 345.883C654.217 347.247 653.861 348.352 653.148 349.2Z"/>
<path d="M677.002 337.916L673.158 337.916L672.786 340.117C671.567 338.505 669.913 337.699 667.826 337.699C666.421 337.699 665.155 338.029 664.029 338.691C662.902 339.352 662.024 340.292 661.394 341.512C660.763 342.731 660.448 344.136 660.448 345.728C660.448 347.34 660.763 348.75 661.394 349.959C662.024 351.168 662.897 352.103 664.013 352.765C665.129 353.426 666.39 353.757 667.795 353.757C669.924 353.757 671.567 353.023 672.724 351.556L672.724 353.23C672.724 354.449 672.383 355.369 671.701 355.989C671.019 356.609 670.058 356.919 668.818 356.919C667.826 356.919 667.025 356.712 666.416 356.299C665.806 355.885 665.398 355.296 665.191 354.532L660.789 354.532C660.892 356.35 661.636 357.756 663.021 358.748C664.406 359.74 666.224 360.236 668.477 360.236C671.391 360.236 673.54 359.616 674.925 358.376C676.31 357.136 677.002 355.472 677.002 353.385L677.002 337.916ZM671.639 349.014C670.936 349.84 669.996 350.254 668.818 350.254C667.64 350.254 666.695 349.84 665.982 349.014C665.269 348.187 664.912 347.102 664.912 345.759C664.912 344.415 665.269 343.325 665.982 342.488C666.695 341.651 667.64 341.233 668.818 341.233C669.996 341.233 670.936 341.656 671.639 342.504C672.342 343.351 672.693 344.446 672.693 345.79C672.693 347.112 672.342 348.187 671.639 349.014Z"/>
<path d="M683.14 337.916L678.49 337.916L684.628 353.943L684.225 354.997C683.998 355.534 683.76 355.896 683.512 356.082C683.264 356.268 682.861 356.361 682.303 356.361L679.885 356.361L679.885 360.05L684.132 360.05C684.938 360.05 685.594 359.91 686.101 359.631C686.607 359.352 687.025 358.939 687.356 358.391C687.687 357.844 688.038 357.084 688.41 356.113L695.478 337.916L690.797 337.916L687.015 349.355L683.14 337.916Z"/>
<path d="M695.974 349.587C695.478 350.073 695.23 350.698 695.23 351.463C695.23 352.207 695.478 352.822 695.974 353.307C696.47 353.793 697.1 354.036 697.865 354.036C698.609 354.036 699.234 353.793 699.741 353.307C700.247 352.822 700.5 352.207 700.5 351.463C700.5 350.719 700.247 350.099 699.741 349.603C699.234 349.107 698.609 348.859 697.865 348.859C697.1 348.859 696.47 349.102 695.974 349.587Z"/>
</g>
</g>
</svg>
